<?xml version="1.0" encoding="utf-8"?>
<!-- Generator: Adobe Illustrator 26.0.1, SVG Export Plug-In . SVG Version: 6.00 Build 0)  -->
<svg version="1.1" id="Layer_1" xmlns="http://www.w3.org/2000/svg" xmlns:xlink="http://www.w3.org/1999/xlink" x="0px" y="0px"
	 viewBox="0 0 24 24" style="enable-background:new 0 0 24 24;" xml:space="preserve">
<path d="M19,5h-3V4c0-1.1-0.9-2-2-2h-4C8.9,2,8,2.9,8,4v1H5C3.3,5,2,6.3,2,8v9c0,1.7,1.3,3,3,3h14c1.7,0,3-1.3,3-3V8
	C22,6.3,20.7,5,19,5z M10,4h4v1h-4V4z M20,17c0,0.6-0.4,1-1,1H5c-0.6,0-1-0.4-1-1v-5.6L8.7,13c0.1,0,0.2,0,0.3,0h6
	c0.1,0,0.2,0,0.3-0.1l4.7-1.6V17z M20,9.3L14.8,11H9.2L4,9.3V8c0-0.6,0.4-1,1-1h14c0.6,0,1,0.4,1,1V9.3z"/>
</svg>
