<?xml version="1.0" encoding="utf-8"?>
<!-- Generator: Adobe Illustrator 26.0.1, SVG Export Plug-In . SVG Version: 6.00 Build 0)  -->
<svg version="1.1" id="Layer_1" xmlns="http://www.w3.org/2000/svg" xmlns:xlink="http://www.w3.org/1999/xlink" x="0px" y="0px"
	 viewBox="0 0 500 500" style="enable-background:new 0 0 500 500;" xml:space="preserve">
<style type="text/css">
	.st0{clip-path:url(#SVGID_00000086691500000884631370000015078878121156253080_);}
	.st1{fill:#EBEBEB;}
	.st2{fill:#455A64;}
	.st3{fill:#FFBE9D;}
	.st4{fill:#263238;}
	.st5{fill:#EB996E;}
	.st6{fill:#1F3037;}
	.st7{opacity:0.3;}
	.st8{fill:#FFFFFF;}
	.st9{fill:#FAFAFA;}
	.st10{fill:#F5F5F5;}
	.st11{opacity:0.4;}
	.st12{fill:#E0E0E0;}
</style>
<g>
	<g>
		<defs>
			<rect id="SVGID_1_" y="107.1" width="500" height="393.9"/>
		</defs>
		<clipPath id="SVGID_00000048496272948983992590000009990795724699204224_">
			<use xlink:href="#SVGID_1_"  style="overflow:visible;"/>
		</clipPath>
		<g style="clip-path:url(#SVGID_00000048496272948983992590000009990795724699204224_);">
			<g id="freepik--background-simple--inject-15">
				<path class="st1" d="M451.8,209.6l-1.4-4c-11.5-34-40.5-59.6-75.9-65.5c-4.6-0.8-9.2-1.2-13.8-1.3
					c-33.3-0.6-66.4,16.8-84.8,44.5c-10.8,16.3-17.4,36.5-33.5,47.7c-20.9,14.6-49.3,8.7-73.9,2.2s-53.1-12.3-73.9,2.4
					c-13,9.2-20.1,25-22.9,40.7C64.5,318,85,361.4,117.8,388.2s75.8,38.4,118.1,39.6c59.2,1.7,120.2-16.8,163.5-57.2
					S465.8,267.2,451.8,209.6z"/>
			</g>
			<g id="freepik--Character--inject-15">
				<path class="st2" d="M329.2,354.3L329.2,354.3c34.6,0,62.6,28,62.6,62.6v72.6l0,0H266.6l0,0v-72.6
					C266.6,382.3,294.6,354.3,329.2,354.3z"/>
				<path class="st3" d="M170.6,454.3l-6.3,4.5l-7,16.8c0,0,1.9,1.3,3.4-0.1s7.1-11.1,7.1-11.1v5.8c0,2.3,1.8,4.3,4.1,4.6l10.4,3.2
					l12.7-3.6l1.1-15.2L170.6,454.3z"/>
				<path class="st4" d="M283.8,342.5c-3.1-0.9-4.6-4.5-4.9-7.7s0.2-6.6-0.6-9.7c-0.6-2.2-2-4.3-2.1-6.6c-0.2-2.5,1-4.9,1.1-7.4
					c0.1-3.5-2-6.7-2-10.2c-0.1-4.8,0.8-12.7,5.6-12.5c4.8,0.3,12.5,8.7,11.9,13.4"/>
				<path class="st3" d="M329.2,302.8l-0.1,4.8l-1,71.8c-0.1,8.3-7.4,14.9-16.3,14.7l0,0c-9-0.2-16.3-7.2-16.4-15.6
					c0-8.8-0.2-18.1-0.2-18.1s-11.4-1.9-13.7-16.7c-1.2-7.4-0.8-19.5-0.2-29.4c0.5-8.6,8-15.2,16.6-14.7c0.2,0,0.4,0,0.7,0.1
					L329.2,302.8z"/>
				<path class="st4" d="M284.4,322.6c0,1,0.8,1.9,1.8,1.9c1,0.1,1.9-0.6,2-1.6v-0.1c0-1-0.8-1.9-1.9-1.9l0,0
					C285.3,320.8,284.5,321.5,284.4,322.6C284.4,322.5,284.4,322.6,284.4,322.6z"/>
				<path class="st4" d="M284,320.4c0.2,0.2,1.7-0.8,3.7-0.8s3.5,1,3.8,0.8s-0.1-0.6-0.8-1c-0.9-0.6-1.9-0.9-3-0.9s-2.1,0.4-3,1
					C284.1,319.9,283.8,320.3,284,320.4z"/>
				<path class="st4" d="M304.9,322.6c0,1,0.8,1.9,1.8,1.9c1,0.1,1.9-0.7,2-1.7c0,0,0,0,0-0.1c0-1-0.8-1.9-1.8-1.9
					S305,321.5,304.9,322.6C304.9,322.5,304.9,322.5,304.9,322.6z"/>
				<path class="st4" d="M304.1,320.9c0.2,0.2,1.7-0.8,3.7-0.8s3.5,1,3.8,0.8s-0.1-0.6-0.8-1c-0.9-0.6-1.9-0.9-3-0.9s-2.1,0.4-3,1
					C304.2,320.3,304,320.7,304.1,320.9z"/>
				<path class="st4" d="M296.7,336c-1.1-0.3-2.2-0.5-3.3-0.6c-0.5,0-1-0.2-1.1-0.5c0-0.5,0.1-1.1,0.4-1.5l1.5-4
					c2.1-5.7,3.7-10.3,3.5-10.4s-2.1,4.4-4.3,10.1c-0.5,1.4-1,2.7-1.5,4c-0.3,0.6-0.4,1.3-0.3,2c0.2,0.4,0.5,0.7,0.9,0.8
					c0.3,0.1,0.6,0.1,0.9,0.1C294.4,336.1,295.6,336.1,296.7,336z"/>
				<path class="st5" d="M295.3,360.3c7,0.1,13.9-1.7,19.9-5.3c0,0-4.8,10.2-19.7,8.8L295.3,360.3z"/>
				<path class="st5" d="M297.5,341c0.8-1,2-1.5,3.3-1.4c0.9,0.1,1.8,0.5,2.3,1.2c0.6,0.7,0.6,1.7,0.2,2.4c-0.7,0.8-1.7,1-2.7,0.7
					s-1.9-0.9-2.6-1.6c-0.2-0.2-0.4-0.4-0.6-0.6C297.3,341.6,297.3,341.3,297.5,341"/>
				<path class="st4" d="M302.7,337.4c-0.3,0-0.3,2.2-2.2,3.8s-4.3,1.3-4.3,1.6c0,0.1,0.5,0.4,1.5,0.5c1.3,0,2.6-0.4,3.6-1.2
					c1-0.8,1.6-1.9,1.7-3.2C303.1,338,302.9,337.4,302.7,337.4z"/>
				<path class="st4" d="M303.6,312.8c0.2,0.6,2.2,0.3,4.7,0.6s4.4,0.9,4.7,0.4c0.1-0.2-0.2-0.8-1-1.3c-2.1-1.3-4.7-1.6-7.1-0.8
					C303.9,312.1,303.5,312.5,303.6,312.8z"/>
				<path class="st4" d="M284.7,314.5c0.4,0.5,1.8,0,3.5,0s3.1,0.3,3.5-0.2c0.1-0.2-0.1-0.7-0.7-1.1c-0.8-0.5-1.8-0.8-2.8-0.8
					s-2,0.3-2.8,0.9C284.8,313.8,284.6,314.3,284.7,314.5z"/>
				<path class="st4" d="M334.6,298.2c3.1-8.4,16-21,25.8-15.4c10.8,6.2,7,10.4,10.9,13.3c0.9,0.7,5.3-0.8,5.9,0.2
					c1.6,2.6,0.2,5.9-1.1,8.7c0.3,0,0.7-0.1,1-0.3c0.9-0.4,2,0.1,2.3,1c0.1,0.2,0.1,0.5,0.1,0.7c-0.2,3.3-1.4,6.5-3.4,9.2
					c0.7,0.2,1.4,0.2,2.1,0.1s1.4,0.4,1.5,1.1c0,0.2,0,0.4-0.1,0.6c-1.2,3.2-4,5.6-7.5,6.3c-4.1,0.9-8.5-0.6-11.9-3.2
					s-5.9-6-8.2-9.6c-1.3-2.1-2.6-4.2-4.6-5.6s-4.8-2-6.9-0.6"/>
				<path class="st6" d="M340.8,304.3c0,0,0-0.2,0-0.4c0-0.3-0.1-0.7-0.2-1c-0.4-1.1-1-2.1-1.6-3c-0.6-1-1.3-1.9-2.1-2.7
					c-0.6-0.6-1-1-1-1c0.5,0.1,0.9,0.4,1.3,0.8c0.9,0.8,1.6,1.7,2.3,2.7c0.7,1,1.2,2.1,1.5,3.2c0.1,0.4,0.2,0.7,0.1,1.1
					C340.9,304.2,340.8,304.4,340.8,304.3z"/>
				<path class="st4" d="M365.9,327.4c0,0-0.1,0.1-0.4,0.3c-0.4,0.2-0.7,0.4-1.1,0.6c-1.5,0.6-3.1,0.8-4.7,0.6
					c-2.4-0.3-4.6-1.4-6.2-3.2c-0.9-1.1-1.6-2.3-2-3.7c-0.4-1.4-0.7-2.9-0.7-4.4c-0.2-3-0.1-5.9-0.6-8.5c-0.2-1.2-0.6-2.4-1.2-3.4
					c-0.5-0.9-1.2-1.7-2.1-2.4c-1.2-1-2.7-1.5-4.3-1.4c-0.6,0.1-1.1,0.2-1.7,0.4c0.1-0.1,0.2-0.2,0.4-0.2c0.4-0.2,0.8-0.3,1.2-0.3
					c1.6-0.1,3.2,0.4,4.5,1.4c0.9,0.7,1.7,1.5,2.2,2.4c0.6,1.1,1.1,2.3,1.3,3.5c0.6,2.6,0.5,5.5,0.7,8.5c0.1,1.5,0.3,2.9,0.7,4.3
					c0.4,1.3,1,2.5,1.9,3.5c2.6,2.9,6.7,4,10.5,2.7C365.4,327.7,365.9,327.3,365.9,327.4z"/>
				<path class="st4" d="M375.9,287c0.1,0.2,0.2,0.4,0.3,0.6c0.2,0.6,0.3,1.2,0.4,1.8c0.1,1-0.1,1.9-0.5,2.8
					c-0.5,1.2-1.3,2.2-2.5,2.9c-1.4,0.8-3,1.1-4.5,0.7c-1.8-0.3-3.4-1.5-4.3-3.1c-0.9-1.8-1.5-3.6-1.7-5.6c-0.4-2-0.8-4.1-2.1-5.7
					c-0.6-0.8-1.5-1.3-2.5-1.6c-1-0.2-2-0.3-2.9-0.1c-1.9,0.4-3.6,1.2-5.2,2.2c-2.8,1.7-5.4,3.7-7.8,5.9c-1.6,1.5-3.1,3.1-4.5,4.8
					L337,294c-0.1,0.2-0.3,0.3-0.4,0.5c0.1-0.2,0.2-0.4,0.3-0.5c0.2-0.4,0.6-0.8,1-1.5c1.3-1.8,2.8-3.5,4.4-5c2.4-2.3,5-4.3,7.8-6.1
					c1.6-1.1,3.5-1.9,5.4-2.3c1-0.2,2.1-0.2,3.2,0.1c1.1,0.3,2.1,0.9,2.9,1.8c1.4,1.8,1.8,3.9,2.2,5.9c0.2,1.9,0.8,3.7,1.6,5.4
					c0.8,1.5,2.3,2.6,3.9,2.9c1.5,0.3,3,0.1,4.3-0.6c1.1-0.6,1.9-1.6,2.4-2.7c0.4-0.9,0.6-1.8,0.5-2.7
					C376.4,288.5,376.2,287.7,375.9,287z"/>
				<path class="st4" d="M338.3,283.5c0.5,0.5,0.9,1,1.1,1.6c1.4,3.1,0.7,6.6-1.6,9.1c-0.4,0.5-1,0.9-1.6,1.2c0-0.1,0.6-0.5,1.3-1.4
					c2-2.4,2.6-5.7,1.5-8.7C338.7,284.1,338.2,283.5,338.3,283.5z"/>
				<path class="st4" d="M339.8,301.9c-2.3-5.8-7.4-10.1-13.5-11.4c-3.7-0.7-7.5-0.2-10.9,1.5c-1.2-0.8-2.4-1.8-3.4-2.9
					c-3.5-3.6-7.9-6.2-12.7-7.6c-4.8-1.4-10-1-14.6,1.1c-4.6,2.2-7.9,6.3-9,11.2c-1,5,0.9,10.1,4.8,13.3c4,3,10,3.1,13.9-0.1
					c-0.3,2.2,1.6,4.2,3.8,4.6c2.2,0.3,4.4-0.4,6.2-1.8c1.7-1.4,3.3-2.9,4.8-4.6c0.6-0.6,1.2-1.1,1.8-1.7c2.4,5.1,7,8.8,12.5,10
					c-1.7,1.9-1.6,4.8-0.9,7.2s1.9,4.8,1.8,7.4c0,2.1-1,4.1-1.4,6.2c-0.6,2.9-0.1,6,1.2,8.7c0.5,1,1.1,2.5,1.7,3.5
					c1,1.8,1,1.8,2.5,2.2c3.1,1,8.3-10.2,9.7-14.6c1.1-3.7,1.6-10.3,2.9-13.9C343.5,314,342,307.6,339.8,301.9z"/>
				<path class="st2" d="M341.9,315.9c-0.1,0.1-0.1,0.2-0.2,0.3c-0.2,0.3-0.5,0.5-0.8,0.7c-1.2,0.7-2.7,0.8-4,0.1
					c-0.4-0.2-0.8-0.5-1.1-0.9c-0.3-0.4-0.6-0.8-0.8-1.3c-0.4-1-0.8-1.9-1.4-2.8c-0.7-0.9-1.8-1.4-2.9-1.5c-1.2-0.1-2.5-0.2-3.8-0.2
					s-2.6-0.2-3.8-0.5c-1.2-0.3-2.3-0.8-3.3-1.3c-1.8-0.9-3.4-2.2-4.8-3.7c-0.9-1-1.7-2.2-2.3-3.4c-0.2-0.3-0.3-0.7-0.4-1
					c-0.1-0.1-0.1-0.2-0.1-0.4c0.8,1.6,1.9,3.2,3.1,4.5c1.3,1.5,2.9,2.7,4.7,3.6c1,0.5,2.1,0.9,3.2,1.2c1.2,0.3,2.5,0.5,3.7,0.5
					c1.3,0,2.6,0,3.8,0.2c1.3,0.1,2.4,0.8,3.2,1.8c0.6,0.9,1,2,1.4,3c0.2,0.4,0.4,0.8,0.7,1.2c0.3,0.3,0.6,0.6,1,0.8
					c1.2,0.6,2.6,0.6,3.8,0C341.2,316.5,341.5,316.2,341.9,315.9z"/>
				<path class="st2" d="M339.6,321.9c0,0-0.2,0.3-0.6,0.6c-0.6,0.5-1.4,0.8-2.1,1.1c-1.1,0.3-2.4,0.4-3.5,0.1
					c-1.4-0.3-2.7-1.1-3.8-2.2c-0.9-1.1-1.7-2.3-2.3-3.6c-0.5-1-1.2-2-2-2.7c-0.5-0.5-1.2-0.9-1.9-1.1c-0.3,0-0.6-0.1-0.8-0.2
					c0.3-0.1,0.6-0.1,0.9,0c0.8,0.1,1.5,0.5,2.1,1c0.9,0.8,1.6,1.7,2.2,2.8c0.6,1.3,1.3,2.4,2.2,3.5c0.9,1,2.1,1.7,3.5,2.1
					c1.1,0.3,2.2,0.3,3.3,0C337.7,322.9,338.7,322.4,339.6,321.9z"/>
				<path class="st2" d="M379,304.4c0,0.2-0.1,0.4-0.1,0.6c-0.2,0.5-0.5,1-0.9,1.4c-0.6,0.7-1.4,1.1-2.3,1.4
					c-1.1,0.4-2.4,0.4-3.5,0.1c-2.6-0.6-5.1-3-6.6-6.1s-2.5-6.8-4.8-10c-1.1-1.5-2.6-2.7-4.4-3.4c-1.6-0.6-3.4-0.9-5.2-0.8
					c-3,0.3-5.8,1.5-8,3.6c-1.5,1.4-2.8,3-3.8,4.7c-0.7,1.2-1,2-1.1,2c0-0.2,0.1-0.4,0.2-0.6c0.2-0.5,0.4-1,0.7-1.5
					c1-1.8,2.2-3.5,3.7-4.9c2.2-2.2,5.2-3.5,8.2-3.8c1.8-0.2,3.7,0.1,5.4,0.8c1.8,0.7,3.4,2,4.6,3.6c2.4,3.3,3.2,7.1,4.8,10.1
					s3.8,5.3,6.3,6c1.1,0.3,2.3,0.3,3.4-0.1C377.2,307.2,378.4,306,379,304.4L379,304.4z"/>
				<path class="st2" d="M378.6,311.5c0,0-0.1,0.2-0.4,0.4c-0.4,0.4-0.8,0.7-1.2,1.1c-0.7,0.5-1.4,0.9-2.2,1.2
					c-1.1,0.4-2.2,0.6-3.4,0.5c-3-0.5-5.6-2.1-7.4-4.6c-1-1.4-1.8-3-2.3-4.7c-0.6-1.7-1.1-3.5-1.7-5.3c-0.6-1.7-1.5-3.4-2.6-4.8
					c-1.1-1.3-2.5-2.2-4.1-2.7c-2.8-0.7-5.8-0.3-8.3,1.1c-1.7,0.9-3.3,2.1-4.8,3.4l-1.2,1.1c-0.1,0.1-0.3,0.3-0.4,0.4
					c0.1-0.2,0.2-0.3,0.4-0.4c0.2-0.3,0.6-0.7,1.1-1.2c1.4-1.4,3-2.6,4.7-3.5c2.6-1.5,5.7-1.9,8.6-1.2c1.7,0.5,3.3,1.4,4.4,2.8
					c1.2,1.5,2.1,3.1,2.7,4.9s1.1,3.6,1.7,5.3c0.5,1.6,1.3,3.2,2.2,4.6c1.6,2.4,4.2,4,7,4.5c1.1,0.1,2.2,0,3.2-0.4
					c0.8-0.3,1.5-0.7,2.2-1.1C378,312,378.6,311.4,378.6,311.5z"/>
				<path class="st6" d="M270.7,460.3l1.7,4.2L269,503h85l-3.8-11.5l10.6,0.5c16.3,0.8,29.6-13.7,26.4-29.7c-0.1-0.5-0.2-1-0.3-1.4
					c-5.3-20.6-12.4-48.3-14.9-56.4c-4.1-13.5-13.3-19.9-13.3-19.9h-0.1c-12.7-10.4-30-11.3-30-11.3l-6.4,4.3
					c-6.4,4.3-14.5,4.9-21.5,1.8c-2.5-1.2-4.5-3.4-5.2-6l0,0c-7.5,0.8-14.8,2.7-21.7,5.7c-7.9,3.7-14,10.5-16.8,18.8l-22.2,65
					l-37.8-5.1l-8.1,22.1l38.3,9.1c14.1,4.2,29.3-2,36.4-15L270.7,460.3 M341.3,465.5L341.3,465.5c0,0,3.6-13.9,5.8-21.4l5.4,21
					L341.3,465.5z"/>
				<path class="st4" d="M370.2,492.3h-0.4h-1.3h-5l-18.7,0.1l-65.1,0.1h-0.2v-0.2c0.3-7.9,0.7-16.3,1-24.9v-0.2h0.2l24.2-0.8
					l47.6-1.4l-0.2,0.3c-1.8-6.5-3.2-12.8-4.6-18.8s-2.6-11.8-3.9-17.2c-0.6-2.7-1.2-5.4-1.7-7.9c-0.6-2.5-1.1-5-1.4-7.5
					c-0.2-2.3-0.2-4.7,0-7c0.2-2.1,0.6-4.3,1.2-6.3c1-3.6,2.9-6.8,5.7-9.2c2.1-1.8,4.6-3,7.3-3.4c1.7-0.3,3.4-0.2,5,0.3
					c0.4,0.1,0.8,0.3,1.2,0.5c0.3,0.1,0.4,0.2,0.4,0.2s-0.5-0.2-1.6-0.5c-1.6-0.4-3.3-0.5-5-0.2c-2.7,0.4-5.2,1.6-7.2,3.4
					c-2.7,2.5-4.6,5.6-5.5,9.1c-0.6,2.1-1,4.2-1.1,6.3c-0.2,2.3-0.2,4.7,0,7c0.3,2.5,0.8,5,1.4,7.4c0.6,2.5,1.1,5.2,1.8,7.9
					c1.2,5.4,2.5,11.2,3.9,17.2s2.9,12.4,4.7,18.8l0.1,0.3h-0.3l-47.5,1.5L281,468l0.2-0.2c-0.4,8.6-0.7,16.9-1.1,24.9l-0.2-0.3
					l65.1,0.1l18.7,0.1h5h1.3C369.9,492.2,370.1,492.2,370.2,492.3z"/>
				<path class="st4" d="M275.4,403.7c0,0.2,0.1,0.4,0,0.6c0,0.4,0,1,0,1.8c-0.1,2.2-0.5,4.4-1.1,6.5c-0.9,3.1-2.1,6.2-3.3,9.1
					c-1.6,3.6-2.8,7.4-3.7,11.3c-0.7,3.9-0.7,7.9-0.1,11.8c0.5,3.2,1.3,6.3,2.3,9.4c0.8,2.6,1.6,4.7,2.1,6.2l0.6,1.7
					c0.1,0.2,0.1,0.4,0.2,0.6c-0.1-0.2-0.2-0.4-0.3-0.6c-0.2-0.4-0.4-1-0.7-1.6c-0.6-1.4-1.4-3.5-2.3-6.2c-1.1-3.1-1.9-6.2-2.4-9.4
					c-0.7-3.9-0.7-8,0-11.9c0.9-3.9,2.1-7.7,3.7-11.3c1.4-3.4,2.6-6.4,3.4-9.1c0.7-2.1,1.1-4.2,1.3-6.4
					C275.3,404.6,275.3,403.7,275.4,403.7z"/>
				<path class="st4" d="M352.5,465.1c0.6-0.2,1.2-0.3,1.8-0.2c1.5,0,2.9,0.4,4.2,1c1.4,0.6,2.5,1.5,3.4,2.8
					c0.4,0.5,0.6,1.1,0.6,1.7c-0.1,0-0.3-0.6-1-1.5c-0.9-1.1-2-1.9-3.3-2.5s-2.6-0.9-4-1.1C353.7,465.3,353.1,465.2,352.5,465.1z"/>
				<path class="st4" d="M345,377c0.5,0.2,1.1,0.4,1.6,0.6s1.1,0.5,1.8,0.8l2.4,1.2c0.9,0.4,1.8,1,2.8,1.5s2,1.2,3.1,1.9
					c2.3,1.6,4.5,3.4,6.5,5.3c3.7,3.6,6.5,8,8.3,12.8c0.3,0.8,0.6,1.7,0.8,2.5c0.2,0.8,0.4,1.4,0.4,2c0.1,0.6,0.2,1.1,0.2,1.7
					c-0.2-0.5-0.3-1.1-0.4-1.6s-0.3-1.2-0.5-1.9s-0.5-1.6-0.8-2.5c-1.8-4.7-4.6-9-8.3-12.5c-2-1.9-4.2-3.7-6.5-5.3
					c-1.1-0.7-2.1-1.4-3.1-2s-1.9-1.1-2.8-1.6l-2.3-1.2l-1.8-0.9C346,377.5,345.5,377.3,345,377z"/>
				<g class="st7">
					<path d="M341.7,418.9c0,0-8.4,37.3-8.3,40.9c0,1.9,0.3,3.8,0.9,5.7l7,0.1l0.1-0.7l5.9-21.1L341.7,418.9z"/>
				</g>
				<path class="st8" d="M295.3,417c0,0.1-0.9,0.4-2.3,1.5c-2,1.5-3.5,3.6-4.3,5.9c-0.6,1.6-0.8,3.3-0.7,5c0.1,2,0.7,3.8,1.7,5.5
					c1.1,1.9,2.6,3.4,4.5,4.5c1,0.6,2,1,3.1,1.3s2.3,0.4,3.5,0.4s2.3-0.2,3.5-0.6c1.1-0.4,2.1-0.8,3.1-1.5c5-3.3,7-9.7,4.7-15.3
					c-1-2.3-2.6-4.3-4.6-5.7c-1.5-1-2.4-1.3-2.4-1.4c0.2,0.1,0.5,0.1,0.7,0.2c0.6,0.3,1.2,0.6,1.8,0.9c3.7,2.4,5.9,6.5,5.9,10.8
					c0,2-0.5,4-1.4,5.8c-1,2-2.5,3.7-4.4,4.9c-1,0.6-2.1,1.2-3.2,1.5c-1.2,0.4-2.4,0.5-3.6,0.6c-2.4,0.1-4.8-0.6-6.9-1.8
					c-1.9-1.1-3.5-2.8-4.7-4.7c-3.3-5.7-1.7-13,3.6-16.8c0.6-0.4,1.2-0.7,1.8-1C294.9,417.2,295.1,417.1,295.3,417z"/>
				<path class="st8" d="M300.5,414.7c0.3,3.1,0.3,6.1,0.3,9.2c0.1,3.1,0,6.1-0.3,9.2c-0.3-3.1-0.4-6.1-0.3-9.2
					C300.1,420.8,300.2,417.8,300.5,414.7z"/>
				<path class="st3" d="M268.3,466.9l-5.5-2.2c0,0-6.4-10.8-7.7-10.3s-1.5,3.8,1.1,8.8l-7.2-1.6c0,0-15,8-14.3,8.9s2.1,3.1,5.4,1.2
					s7.6-4.2,7.6-4.2l8.5,1.9l-10.6,2l-9.6,9.7c0,0,3.4,2.3,6.2-0.5l26.5,4.2h11.2l0.6-14.8L268.3,466.9z"/>
				<path class="st5" d="M242,480.5c0.1,0.1,0.6-0.7,1.4-1.8c0.5-0.6,1.1-1.2,1.8-1.6c0.9-0.5,1.8-0.8,2.8-0.9
					c4.3-0.8,7.8-1.6,7.8-1.8s-3.6,0.2-7.9,1c-1.1,0.1-2.1,0.5-3.1,1.1c-0.7,0.5-1.4,1.1-1.9,1.9C242.4,479,242.1,479.8,242,480.5z"
					/>
				<path class="st5" d="M246.1,481.4c0.1,0,0.1-0.5,0.9-0.8s1.9-0.4,3.2-0.6c2.5-0.4,4.6-0.5,4.6-0.7s-2.1-0.5-4.7-0.1
					c-1.1,0.1-2.2,0.4-3.3,0.9c-0.4,0.2-0.6,0.5-0.8,0.9C246,481.2,246.1,481.4,246.1,481.4z"/>
				<path class="st5" d="M267.5,466.5c-0.9-0.2-1.8-0.4-2.6-0.8c-1.6-0.5-3.9-1.1-6.4-1.8l-6.4-1.6c-0.9-0.2-1.8-0.5-2.6-0.8
					c0.9,0.1,1.8,0.2,2.7,0.5c1.7,0.3,4,0.8,6.5,1.5c2.2,0.5,4.3,1.2,6.4,1.9C265.9,465.7,266.7,466.1,267.5,466.5z"/>
			</g>
			<path class="st4" d="M366.2,194.9c0-0.4-0.1-0.7-0.1-1.1c0-0.7,0-1.7-0.1-3c0-2.6-0.1-6.2-0.1-10.4l0.2,0.2h-14.5
				c0,0.1,0.5-0.5,0.3-0.3l0,0v3.9c0,1.3,0,2.5,0,3.7c0,2.4,0,4.7,0,6.8l-0.2-0.2l10.4,0.1l3,0.1
				C365.9,194.7,366.3,194.7,366.2,194.9c-0.3,0-0.6,0-0.9,0h-2.9l-10.6,0.1h-0.2v-0.2c0-2.1,0-4.4,0-6.8c0-1.2,0-2.5,0-3.7v-3.9
				l0,0c-0.2,0.2,0.3-0.3,0.3-0.3h14.5h0.2v0.2c0,4.3-0.1,7.9-0.1,10.6c0,1.2,0,2.2-0.1,2.9C366.3,194.1,366.3,194.5,366.2,194.9z"
				/>
			<path class="st4" d="M366.2,180.6c0.1,0.1-3,3.4-7,7.4c-2.3,2.5-4.8,4.8-7.4,7c2.2-2.6,4.5-5,7-7.4
				C361.1,185.1,363.6,182.8,366.2,180.6z"/>
			<path class="st4" d="M366,194.8c-2.5-2.2-5-4.5-7.2-6.9c-2.4-2.3-4.7-4.7-6.9-7.3c2.5,2.2,4.9,4.5,7.2,6.9
				C361.5,189.8,363.8,192.2,366,194.8z"/>
			<path class="st4" d="M451.8,279c0.2-0.3,0.5-0.6,0.8-0.9c0.6-0.6,1.4-1.4,2.2-2.2c1.9-1.9,4.6-4.4,7.5-7.3l0.1-0.1v0.4
				c-3-2.8-5.7-5.3-7.6-7.1l-2.2-2.2c-0.3-0.3-0.6-0.5-0.8-0.9c0.3,0.2,0.6,0.4,0.9,0.7l2.4,2.1c2,1.8,4.7,4.2,7.7,7l0.2,0.2
				l-0.2,0.2l-0.1,0.1c-3,2.8-5.7,5.3-7.6,7.1l-2.4,2.1C452.5,278.6,452.2,278.8,451.8,279z"/>
			<path class="st4" d="M428.8,258.8c-0.2,0.3-0.5,0.6-0.8,0.9l-2.2,2.2c-1.9,1.9-4.6,4.4-7.5,7.3l-0.1,0.1v-0.4
				c3,2.8,5.7,5.3,7.6,7.1l2.2,2.2c0.3,0.3,0.6,0.5,0.8,0.9c-0.3-0.2-0.6-0.4-0.9-0.7c-0.6-0.6-1.4-1.3-2.4-2.1
				c-2-1.8-4.7-4.2-7.7-7l-0.2-0.2l0.2-0.2l0.1-0.1c3-2.8,5.7-5.3,7.6-7.1l2.4-2.1C428.1,259.2,428.4,259,428.8,258.8z"/>
			<path class="st4" d="M434.7,283.8c-0.1,0,2.3-6.8,5.4-15.1s5.8-15,5.9-14.9s-2.3,6.8-5.4,15.1S434.8,283.8,434.7,283.8z"/>
			<path class="st4" d="M478,298.3c0,0,0-0.4,0-1.1s0-1.8,0-3.3c0-2.9,0-7-0.1-12.3c0-10.6-0.1-25.8-0.1-44.1l0.2,0.2l-75,0.1l0,0
				l0.3-0.3c0,22,0,42.8,0,60.9l-0.2-0.2l54.1,0.1l15.4,0.1h4.1h1L478,298.3l-1.3-0.1h-4l-15.3,0.1l-54.3,0.1h-0.2v-0.2
				c0-18.1,0-38.9,0-60.9v-0.2h0.3h75h0.2v0.2c0,18.4-0.1,33.6-0.1,44.3c0,5.3,0,9.4-0.1,12.3c0,1.4,0,2.5,0,3.2
				C478.2,297.9,478,298.3,478,298.3z"/>
			<path class="st4" d="M478.6,246.5c0,0.1-16.9,0.3-37.8,0.3s-37.8-0.1-37.8-0.3s16.9-0.3,37.8-0.3S478.6,246.3,478.6,246.5z"/>
			<path class="st4" d="M409.1,242c0,0.6-0.4,1-1,1s-1-0.4-1-1s0.4-1,1-1S409.1,241.5,409.1,242z"/>
			<path class="st4" d="M412.8,242c0,0.6-0.4,1-1,1s-1-0.4-1-1s0.4-1,1-1S412.8,241.5,412.8,242z"/>
			<path class="st4" d="M416.5,242c0,0.6-0.4,1-1,1s-1-0.4-1-1s0.4-1,1-1S416.5,241.5,416.5,242z"/>
			<rect x="266.2" y="145.4" class="st2" width="59.2" height="42.2"/>
			<path class="st8" d="M326,151.7c0,0.1-13.4,0.3-29.9,0.3s-29.9-0.1-29.9-0.3s13.4-0.3,29.9-0.3S326,151.6,326,151.7z"/>
			<path class="st8" d="M271.1,148.6c0.1,0.4-0.2,0.9-0.7,0.9c-0.4,0.1-0.9-0.2-0.9-0.7c-0.1-0.4,0.2-0.9,0.7-0.9h0.1
				C270.7,147.9,271,148.2,271.1,148.6z"/>
			<path class="st8" d="M274,148.6c0.1,0.4-0.2,0.9-0.7,0.9c-0.4,0.1-0.9-0.2-0.9-0.7c-0.1-0.4,0.2-0.9,0.7-0.9h0.1
				C273.6,147.9,274,148.2,274,148.6z"/>
			<ellipse class="st8" cx="276.1" cy="148.6" rx="0.8" ry="0.7"/>
			<path class="st8" d="M288.2,168.6c0,2.5-1.8,4.1-4.9,4.1h-3.2v3.8h-1.3v-11.9h4.5C286.3,164.5,288.2,166,288.2,168.6z
				 M286.9,168.6c0-1.9-1.3-3-3.6-3h-3.2v5.9h3.2C285.6,171.5,286.9,170.4,286.9,168.6z"/>
			<path class="st8" d="M300.8,164.5v11.9h-1.2v-5.5h-7.5v5.5h-1.2v-11.9h1.3v5.3h7.5v-5.3H300.8z"/>
			<path class="st8" d="M314,168.6c0,2.5-1.8,4.1-4.9,4.1H306v3.8h-1.3v-11.9h4.5C312.2,164.5,314,166,314,168.6z M312.8,168.6
				c0-1.9-1.3-3-3.6-3H306v5.9h3.2C311.5,171.5,312.8,170.4,312.8,168.6z"/>
			<path class="st6" d="M205.9,236.1l0.8-0.9c0.8,1.4,2.3,2.2,3.9,2.2c2.4,0,3.5-1.3,3.5-4.2V222h-6.5v-1.2h7.8v12.5
				c0,3.6-1.6,5.3-4.8,5.3C208.7,238.7,206.9,237.7,205.9,236.1z"/>
			<path class="st6" d="M219.1,236.9l0.6-1c1.4,1,3,1.6,4.7,1.6c2.8,0,3.9-1,3.9-2.5c0-3.8-8.7-1-8.7-6.2c0-2,1.7-3.6,5-3.6
				c1.6,0,3.2,0.4,4.5,1.3l-0.6,1c-1.2-0.8-2.6-1.2-4-1.2c-2.6,0-3.7,1.1-3.7,2.5c0,4,8.7,1.2,8.7,6.2c0,2.1-1.9,3.6-5.2,3.6
				C222.4,238.7,220.6,238.1,219.1,236.9z"/>
			<path class="st6" d="M241.1,247.9c0,0,0-0.3,0-0.8s0-1.3,0-2.3c0-2,0-4.9-0.1-8.7c0-7.4-0.1-18.1-0.1-30.8l0.2,0.2h-45.9
				c-0.1,0.1,0.5-0.5,0.3-0.2l0,0v11.4c0,3.8,0,7.4,0,11c0,7.1,0,13.9,0,20.1l-0.2-0.2l33.1,0.1l9.4,0.1h2.5h0.6L241.1,247.9
				l-0.8-0.1h-2.4l-9.3,0.1l-33.3,0.1H195v-0.2c0-6.2,0-13,0-20.1c0-3.6,0-7.2,0-11v-11.2l0,0l0.3-0.3h45.9h0.2v0.2
				c0,12.8-0.1,23.5-0.1,30.9c0,3.7,0,6.6-0.1,8.6c0,1,0,1.7,0,2.2S241.1,247.9,241.1,247.9z"/>
			<path class="st6" d="M241,211.7c0,0.1-10.2,0.3-22.9,0.3s-22.9-0.1-22.9-0.3s10.2-0.3,22.9-0.3S241,211.5,241,211.7z"/>
			<ellipse class="st6" cx="199.3" cy="208.5" rx="0.8" ry="0.7"/>
			<path class="st6" d="M203,208.5c0.1,0.4-0.3,0.8-0.7,0.9c-0.4,0.1-0.8-0.3-0.9-0.7c-0.1-0.4,0.3-0.8,0.7-0.9h0.1
				C202.6,207.8,203,208.1,203,208.5z"/>
			<path class="st6" d="M206,208.5c0.1,0.4-0.3,0.8-0.7,0.9c-0.4,0.1-0.8-0.3-0.9-0.7c-0.1-0.4,0.3-0.8,0.7-0.9h0.1
				C205.6,207.8,205.9,208.1,206,208.5z"/>
			<path class="st6" d="M408.4,165.7c-0.1-4.1,3.2-7.4,7.3-7.5c0.1,0,0.3,0,0.4,0c2-0.1,3.9,0.7,5.3,2.1l-0.7,0.7
				c-1.2-1.2-2.9-1.8-4.5-1.8c-3.6-0.2-6.7,2.5-6.9,6.1c-0.2,3.6,2.5,6.7,6.1,6.9c0.2,0,0.5,0,0.7,0c1.7,0.1,3.3-0.6,4.5-1.8
				l0.7,0.7c-1.4,1.4-3.3,2.1-5.3,2.1c-4.1,0.2-7.5-3-7.7-7.1C408.4,166,408.4,165.8,408.4,165.7z"/>
			<path class="st6" d="M423.3,171.2l0.5-0.8c1.3,1.2,3.1,1.9,4.9,1.9c3,0,4.3-1.3,4.3-2.9c0-4.4-9.2-1.8-9.2-7.2
				c0-2.1,1.6-3.9,5.2-3.9c1.6,0,3.1,0.5,4.5,1.3l-0.4,0.9c-1.2-0.8-2.6-1.3-4-1.3c-2.9,0-4.2,1.3-4.2,3c0,4.4,9.2,1.8,9.2,7.2
				c0,2.1-1.7,3.9-5.3,3.9C426.7,173.3,424.8,172.6,423.3,171.2z"/>
			<path class="st6" d="M436.2,171.2l0.5-0.8c1.3,1.2,3.1,1.9,4.9,1.9c3,0,4.3-1.3,4.3-2.9c0-4.4-9.2-1.8-9.2-7.2
				c0-2.1,1.6-3.9,5.2-3.9c1.6,0,3.1,0.5,4.5,1.3l-0.4,0.9c-1.2-0.8-2.6-1.2-4-1.3c-2.9,0-4.2,1.3-4.2,3c0,4.4,9.2,1.8,9.2,7.2
				c0,2.1-1.7,3.9-5.3,3.9C439.6,173.3,437.7,172.6,436.2,171.2z"/>
			<path class="st6" d="M459.5,184.9c0,0,0-0.3,0-0.8s0-1.3,0-2.2c0-2,0-4.9-0.1-8.6c0-7.4-0.1-18-0.1-31l0.2,0.2l-65.9,0.1l0,0
				l0.3-0.3c0,15.1,0,29.5,0,42.6l-0.2-0.2l47.4,0.1l13.6,0.1h3.6h0.9C459.3,184.8,459.5,184.8,459.5,184.9l-0.2-0.1h-0.9h-3.6
				l-13.5,0.1l-47.6,0.1h-0.2v-0.2c0-13.1,0-27.4,0-42.6v-0.1h0.3l65.9,0.1h0.2v0.2c0,13-0.1,23.7-0.1,31.1c0,3.7,0,6.5,0,8.5
				c0,1,0,1.7,0,2.2C459.5,184.7,459.5,184.9,459.5,184.9z"/>
			<path class="st6" d="M459.5,148.7c0,0.1-14.8,0.3-33,0.3s-33-0.1-33-0.3s14.8-0.3,33-0.3S459.5,148.6,459.5,148.7z"/>
			<path class="st6" d="M398.5,145.6c0.1,0.4-0.3,0.8-0.7,0.9c-0.4,0.1-0.8-0.3-0.9-0.7c-0.1-0.4,0.3-0.8,0.7-0.9h0.1
				C398.1,144.9,398.5,145.2,398.5,145.6z"/>
			<path class="st6" d="M401.4,145.6c0.1,0.4-0.3,0.8-0.7,0.9c-0.4,0.1-0.8-0.3-0.9-0.7c-0.1-0.4,0.3-0.8,0.7-0.9h0.1
				C401,144.9,401.4,145.2,401.4,145.6z"/>
			<path class="st6" d="M404.3,145.6c0.1,0.4-0.3,0.8-0.7,0.9c-0.4,0.1-0.8-0.3-0.9-0.7c-0.1-0.4,0.3-0.8,0.7-0.9h0.1
				C404,144.9,404.3,145.2,404.3,145.6z"/>
			<rect x="291.8" y="207" class="st6" width="82.7" height="59"/>
			<path class="st8" d="M319.7,234.4v11.8H317v-4.8h-5.3v4.8H309v-11.8h2.7v4.6h5.3v-4.6H319.7z"/>
			<path class="st8" d="M324.9,236.6h-3.8v-2.2h10.2v2.2h-3.8v9.6h-2.7L324.9,236.6L324.9,236.6z"/>
			<path class="st8" d="M348,234.4h2.7v9.5h5.9v2.3H348V234.4z"/>
			<path class="st8" d="M343.5,246.1v-7l-3.5,5.8h-1.2l-3.4-5.6v6.9h-2.6v-11.8h2.2l4.4,7.3l4.3-7.3h2.2v11.7L343.5,246.1z"/>
			<path class="st8" d="M375.2,215.7c0,0.1-18.7,0.3-41.7,0.3s-41.7-0.1-41.7-0.3s18.7-0.3,41.7-0.3S375.2,215.6,375.2,215.7z"/>
			<path class="st8" d="M298.6,211.4c0.1,0.6-0.4,1.2-1,1.2c-0.6,0.1-1.2-0.4-1.2-1c-0.1-0.6,0.4-1.2,1-1.2h0.1
				C298,210.4,298.5,210.8,298.6,211.4L298.6,211.4z"/>
			<path class="st8" d="M302.6,211.4c0.1,0.6-0.4,1.2-1,1.2c-0.6,0.1-1.2-0.4-1.2-1c-0.1-0.6,0.4-1.2,1-1.2h0.1
				C302.1,210.4,302.6,210.8,302.6,211.4L302.6,211.4z"/>
			<path class="st8" d="M306.7,211.4c0.1,0.6-0.4,1.2-1,1.2c-0.6,0.1-1.2-0.4-1.2-1c-0.1-0.6,0.4-1.2,1-1.2h0.1
				C306.1,210.4,306.6,210.8,306.7,211.4L306.7,211.4z"/>
			<path class="st4" d="M121.3,323.1c0-0.1,0-0.1,0-0.2v-0.5c0-0.5,0-1.2,0-2.1c0-1.9,0-4.6-0.1-8.1c0-6.9-0.1-16.8-0.1-28.6
				l0.2,0.2H81.8c-0.1,0.1,0.5-0.5,0.3-0.2l0,0v5.4c0,1.8,0,3.5,0,5.3v10.2c0,6.6,0,12.9,0,18.7l-0.2-0.2l28.6,0.1l8.1,0.1h2.1
				L121.3,323.1L121.3,323.1l-0.5,0.1h-2.1l-8,0.1L82,323.4h-0.2v-0.1c0-5.8,0-12,0-18.7v-20.9l0,0c-0.2,0.2,0.3-0.3,0.3-0.3h39.6
				h0.2v0.2c0,11.9-0.1,21.8-0.1,28.7c0,3.4,0,6.1-0.1,8c0,0.9,0,1.6,0,2.1c0,0.2,0,0.4,0,0.5C121.4,323,121.3,323.1,121.3,323.1z"
				/>
			<path class="st4" d="M121.3,284c0.1,0.1-8.7,9-19.5,19.9S82,323.5,81.9,323.4s8.6-9,19.5-19.9S121.2,283.9,121.3,284z"/>
			<path class="st4" d="M120.6,322.9c-0.1,0.1-8.8-8.5-19.5-19.3c-10.6-10.7-19.1-19.5-19-19.6s8.8,8.5,19.5,19.3
				C112.2,314,120.7,322.8,120.6,322.9z"/>
			<path class="st4" d="M203.7,294.2c0,0.1-15.7,0.3-35.1,0.3s-35.1-0.1-35.1-0.3c0-0.1,15.7-0.3,35.1-0.3S203.7,294,203.7,294.2z"
				/>
			<path class="st4" d="M203.7,300.5c0,0.1-15.7,0.3-35.1,0.3s-35.1-0.1-35.1-0.3c0-0.1,15.7-0.3,35.1-0.3S203.7,300.3,203.7,300.5z
				"/>
			<path class="st4" d="M203.7,306.8c0,0.1-15.7,0.3-35.1,0.3s-35.1-0.1-35.1-0.3s15.7-0.3,35.1-0.3S203.7,306.7,203.7,306.8z"/>
			<path class="st4" d="M203.7,313.1c0,0.1-15.7,0.3-35.1,0.3s-35.1-0.1-35.1-0.3c0-0.1,15.7-0.3,35.1-0.3S203.7,313,203.7,313.1z"
				/>
			<path class="st4" d="M165.3,287.9c0,0.1-7.2,0.3-16.1,0.3S133,288,133,287.9c0-0.2,7.2-0.3,16.1-0.3S165.3,287.7,165.3,287.9z"/>
			<path class="st4" d="M69.3,271.6H81h33l114.3,0.2h0.2v0.3c0,19.5,0,40.6,0,62.6v0.3H214l0.3-0.3v13.6l-0.4-0.4l-13-13l0.2,0.1
				l-131.7-0.1h-0.2v-0.2c0-19.6,0.1-35.4,0.1-46.3c0-5.4,0-9.6,0-12.4c0-1.4,0-2.5,0-3.2C69.3,272.1,69.2,271.6,69.3,271.6
				c-0.1,0-0.1,0.4-0.1,1.1s0,1.8,0,3.2c0,2.9,0,7.1,0,12.5c0,10.9,0.1,26.6,0.1,46.2l-0.2-0.2l131.7-0.1h0.1l0.1,0.1l13,13
				l-0.4,0.2v-13.3h14.6l-0.3,0.3c0-21.9,0-43.1,0-62.6l0.2,0.2L114,271.9l-33-0.2h-8.8h-2.3L69.3,271.6z"/>
			<g id="freepik--Desk--inject-15">
				<rect x="381.2" y="467.7" class="st2" width="86.8" height="21.8"/>
				<rect x="402.7" y="474.8" class="st4" width="52.9" height="7.6"/>
				<path class="st4" d="M396,479c0,2.3-1.9,4.2-4.2,4.2c-2.3,0-4.2-1.9-4.2-4.2c0-2.3,1.9-4.2,4.2-4.2l0,0
					C394.1,474.8,396,476.7,396,479L396,479z"/>
				<rect x="390.4" y="455.8" class="st4" width="69.3" height="11.8"/>
				<rect x="390.4" y="434.1" class="st6" width="86.8" height="21.8"/>
				<path class="st8" d="M416.8,444.4c0.2-3.1,2.9-5.5,6-5.3c1.4,0.1,2.8,0.7,3.8,1.8l-1.5,1.4c-0.6-0.8-1.6-1.2-2.6-1.2
					c-1.8,0.1-3.2,1.6-3.1,3.4c0.1,1.7,1.4,3,3.1,3.1c1,0,1.9-0.4,2.6-1.2l1.5,1.4c-2.1,2.3-5.6,2.4-7.9,0.4
					C417.5,447.2,416.9,445.9,416.8,444.4z"/>
				<path class="st8" d="M438.9,445.3h-2.5v2.5h-1.9v-2.5H432v-1.8h2.5V441h1.9v2.5h2.5V445.3z"/>
				<path class="st8" d="M447.7,445.3h-2.5v2.5h-1.9v-2.5h-2.5v-1.8h2.5V441h1.9v2.5h2.5V445.3z"/>
				<path class="st9" d="M403.3,455.2c-0.1,0-0.3-4.7-0.3-10.6s0.1-10.6,0.3-10.6s0.3,4.8,0.3,10.6S403.4,455.2,403.3,455.2z"/>
				<path class="st9" d="M399.4,455.2c-0.1,0-0.3-4.7-0.3-10.6s0.1-10.6,0.3-10.6c0.3,3.5,0.4,7.1,0.3,10.6
					C399.8,448.2,399.7,451.7,399.4,455.2z"/>
				<path class="st9" d="M463.3,455.2c-0.3-3.5-0.4-7.1-0.3-10.6c-0.1-3.5,0-7.1,0.3-10.6c0.1,0,0.3,4.8,0.3,10.6
					S463.4,455.2,463.3,455.2z"/>
				<path class="st9" d="M459.6,455.2c-0.1,0-0.3-4.7-0.3-10.6s0.1-10.6,0.3-10.6s0.3,4.8,0.3,10.6S459.7,455.2,459.6,455.2z"/>
				<path class="st1" d="M419,461.6c0-1.3,0.9-2.3,2.2-2.3c0.1,0,0.1,0,0.2,0c0.7,0,1.4,0.3,1.8,0.9l-0.5,0.3
					c-0.3-0.4-0.8-0.7-1.4-0.7c-1,0-1.8,0.8-1.8,1.8s0.8,1.8,1.8,1.8c0.5,0,1-0.2,1.4-0.7l0.5,0.3c-0.4,0.6-1.1,1-1.8,0.9
					C420.1,464,419.1,463,419,461.6C419,461.7,419,461.6,419,461.6z"/>
				<path class="st1" d="M423.8,463.4l0.3-0.5c0.5,0.3,1.1,0.5,1.6,0.5c0.9,0,1.2-0.3,1.2-0.8c0-1.2-3-0.3-3-2.1
					c0-0.8,0.6-1.3,1.8-1.3c0.6,0,1.1,0.1,1.6,0.4l-0.3,0.5c-0.4-0.3-0.9-0.4-1.4-0.4c-0.8,0-1.2,0.3-1.2,0.8c0,1.2,3,0.3,3,2.1
					c0,0.8-0.7,1.3-1.9,1.3C425,464,424.4,463.8,423.8,463.4z"/>
				<path class="st1" d="M428.1,463.4l0.3-0.5c0.5,0.3,1.1,0.5,1.6,0.5c0.9,0,1.2-0.3,1.2-0.8c0-1.2-3-0.3-3-2.1
					c0-0.8,0.6-1.3,1.8-1.3c0.6,0,1.1,0.1,1.6,0.4l-0.3,0.5c-0.4-0.3-0.9-0.4-1.4-0.4c-0.8,0-1.2,0.3-1.2,0.8c0,1.2,3,0.3,3,2.1
					c0,0.8-0.7,1.3-1.9,1.3C429.3,464,428.7,463.8,428.1,463.4z"/>
				<circle class="st1" cx="400.6" cy="461.7" r="2.1"/>
				<circle class="st1" cx="453.2" cy="461.7" r="2.1"/>
				<path class="st4" d="M43.1,350.9h145.8c6.6,0,12,5.4,12,12v91.7c0,6.6-5.4,12-12,12H43.1c-6.6,0-12-5.4-12-12v-91.7
					C31.1,356.2,36.5,350.9,43.1,350.9z"/>
				<polygon class="st2" points="87.6,439.1 78.2,492.3 122.3,492.3 130.3,438 				"/>
				<path class="st2" d="M36.4,350.9h145.8c6.6,0,12,5.4,12,12v91.7c0,6.6-5.4,12-12,12H36.4c-6.6,0-12-5.4-12-12v-91.7
					C24.4,356.2,29.7,350.9,36.4,350.9z"/>
				<polygon class="st4" points="126.1,466.6 130.3,438 131.5,466.6 				"/>
				<path class="st4" d="M87.9,436.1c0.1,0-0.9,7.1-2.4,15.8s-2.8,15.8-2.9,15.7s0.9-7.1,2.4-15.8S87.7,436.1,87.9,436.1z"/>
				<path class="st9" d="M114.8,404.7c0,3.1-2.5,5.6-5.6,5.6s-5.6-2.5-5.6-5.6s2.5-5.6,5.6-5.6S114.8,401.6,114.8,404.7L114.8,404.7
					z"/>
				<path class="st4" d="M109.3,410.3c-3.1,0-5.6-2.5-5.6-5.6s2.5-5.6,5.6-5.6s5.6,2.5,5.6,5.6l0,0
					C114.9,407.8,112.4,410.3,109.3,410.3z M109.3,399.2c-3.1,0-5.5,2.5-5.5,5.5s2.5,5.5,5.5,5.5s5.5-2.5,5.5-5.5
					S112.3,399.2,109.3,399.2z"/>
				<path class="st4" d="M66.9,385.3c0,0,2.6-3.7,1.7-7.8l0,0c0,0,0-1.3-2-3.9c-0.6-0.8-1.3-1.6-2.1-2.3c-0.7-0.6-1.5-1.2-2.3-1.6
					c-0.3-0.2-0.4-0.3-0.4-0.3l0,0c-2.9-1.7-6.4-2.2-9.7-1.5c-2.5,0.5-4.8,1.8-6.6,3.7c-0.6,0.6-1.1,1.3-1.5,2.1
					c-2.1,3.5-2.6,7.7-1.5,11.6c0.1,0.3,0.2,0.5,0.3,0.8v0.1c0,0.1,0.1,0.2,0.1,0.3l0.1,0.2c0.1,0.2,0.2,0.4,0.3,0.6
					c0.2,0.5,0.5,1,0.8,1.5s0.7,1.1,1.1,1.5l0,0c1.7,2,4.3,3,6.8,2.7c0.5,0.9,1.3,1.6,2.3,2c1.9,0.4,5.1-0.5,7.3-1.8
					s5.6-3.5,5.5-5.5C67.1,386.8,67,386.1,66.9,385.3L66.9,385.3z"/>
				<path class="st6" d="M49.9,367.9c-2.5,0.5-4.8,1.8-6.5,3.7c-0.6,0.6-1.1,1.3-1.5,2.1c-1.3,2.6-3.6,7.5-0.7,13.5s7.3,5.9,9.2,5.6
					s14.4-7.5,14.4-7.5s3.8-5.4,0.7-10.3C62.8,370.7,57.1,366.4,49.9,367.9z"/>
				<path class="st10" d="M49,391.1c0,0,1.3,3.3,3.3,3.7s5.1-0.5,7.3-1.8s5.6-3.5,5.5-5.5s-1-4.2-1.3-4.4c-3.1-0.8-6.5-0.3-9.2,1.5
					C52,386,50,388.3,49,391.1z"/>
				<g class="st11">
					<path class="st8" d="M55.7,372.1c1.7,3.2,0.5,7.2-2.7,8.9c-3.2,1.7-7.2,0.5-8.9-2.7s-0.5-7.2,2.7-8.9S54,368.9,55.7,372.1
						L55.7,372.1z"/>
				</g>
				<g class="st11">
					<path class="st8" d="M43.1,390.1c0.9-1.8,1-3.9,0.4-5.9c-0.6-1.9-1.9-3.5-3.7-4.5c-0.1,2.3,0.2,4.5,1,6.6
						C41.3,387.8,42.1,389,43.1,390.1z"/>
				</g>
				<g class="st11">
					<path class="st8" d="M66.5,377.5c-2-0.3-3.8-1.3-5.2-2.9c-1.2-1.5-1.9-3.3-1.8-5.3c1.9,1.1,3.6,2.5,4.9,4.2
						C66.5,376.2,66.5,377.5,66.5,377.5z"/>
				</g>
				<path class="st12" d="M49,391.1c0,0.3,0.1,0.5,0.2,0.8c0.1,0.2,0.4,0.4,0.7,0.3s0.5-0.4,0.6-0.6c1.4-2.6,3.5-4.8,6.1-6.2
					c1-0.6,2.2-1,3.4-1.1c1.1,0,2.1,0.3,3.2,0.3c0.3,0,0.6,0,0.8-0.1c0.2-0.1,0.2-0.4,0.2-0.7c0-0.3-0.2-0.5-0.4-0.6
					c-2.8-1.2-6.4-0.3-9,1.2C52.2,386,50.2,388.3,49,391.1"/>
				<rect x="161.7" y="482.7" class="st2" width="96.6" height="6.8"/>
				<path class="st2" d="M138.6,480.1h4.8c4.3,0,7.8,3.5,7.8,7.8l0,0v1.7l0,0h-20.3l0,0v-1.7C130.9,483.5,134.3,480.1,138.6,480.1z"
					/>
				<path class="st4" d="M150.9,487.4c-3.3,0.3-6.5,0.3-9.8,0.3c-3.3,0.1-6.5,0-9.8-0.3c3.3-0.3,6.5-0.4,9.8-0.3
					C144.3,487,147.6,487.1,150.9,487.4z"/>
				<path class="st4" d="M141.2,480c0.2,1.2,0.3,2.4,0.2,3.6c0,1.2-0.1,2.4-0.4,3.6c-0.2-1.2-0.3-2.4-0.2-3.6
					C140.8,482.3,140.9,481.1,141.2,480z"/>
				<rect x="17.2" y="489.5" class="st4" width="464.6" height="13.5"/>
			</g>
		</g>
	</g>
</g>
</svg>
